<svg xmlns="http://www.w3.org/2000/svg" xmlns:xlink="http://www.w3.org/1999/xlink" version="1.1" fill="#0c243b" x="0px" y="0px" viewBox="0 -1 18 33" style="enable-background:new 0 0 18 31;" xml:space="preserve"><g><path d="M16.032,3H12V1c0-0.553-0.447-1-1-1H7C6.447,0,6,0.447,6,1v2H1.968C0.881,3,0,3.881,0,4.968v24.064   C0,30.119,0.881,31,1.968,31h14.064C17.119,31,18,30.119,18,29.032V4.968C18,3.881,17.119,3,16.032,3z M11,20l-7,9l2.667-8H5l4-8h4   l-3.5,7H11z M1.976,11L1.968,5H16l0.008,6H1.976z"/></g></svg>