<svg xmlns="http://www.w3.org/2000/svg" fill="#0c243b" viewBox="0 0 110 100"><title>Artboard 8</title><path d="M54.75,24.15l.06-.11,2.58-4.93C54.87,19,52.4,19,50,19h0A98.83,98.83,0,0,0,32.85,20.1c-3.44.6-8.41,2-11.82,6.87-1.92,2.76-5,9.64-7.42,15.7a8.62,8.62,0,0,0-5.71-2.55L6,40.14a5.06,5.06,0,0,0-5,5c0,1.07,0,2.22,0,3.63a5.27,5.27,0,0,0,5.16,5.14l2.2,0h.29q-.39.51-.74,1A21.44,21.44,0,0,0,4.41,67.34V91.78A5.11,5.11,0,0,0,9.5,96.89h6.61a5.11,5.11,0,0,0,5.11-5.11V87.95H78.78v3.84a5.11,5.11,0,0,0,5.11,5.11H90.5a5.11,5.11,0,0,0,5.11-5.11V67.34A21.44,21.44,0,0,0,92.06,55q-.36-.53-.74-1h.29l2.2,0A5.27,5.27,0,0,0,99,48.77c0-1.41,0-2.56,0-3.63a5.06,5.06,0,0,0-5-5l-1.89,0a8.43,8.43,0,0,0-5.43,2.31L82.6,50.19a10.3,10.3,0,0,1-19.36-6.31L63.89,40a10.95,10.95,0,0,1-9.19-15.7ZM30.82,72.41H21.46a4,4,0,0,1-4-4V66a4,4,0,0,1,5-3.85l9.36,2.45a4,4,0,0,1-1,7.82Zm37.34-7.82,9.36-2.45a4,4,0,0,1,5,3.85v2.45a4,4,0,0,1-4,4H69.18a4,4,0,0,1-1-7.82ZM78.9,6.86,77,18.61l7.81.36.44,0A3.88,3.88,0,0,1,88,24.56L76.3,47a3.21,3.21,0,0,1-2.9,1.8,3.35,3.35,0,0,1-.52,0A3.24,3.24,0,0,1,70.22,45l1.94-11.76-7.81-.36-.44,0a3.88,3.88,0,0,1-2.84-5.54L72.8,4.91a3.21,3.21,0,0,1,2.9-1.8,3.36,3.36,0,0,1,.52,0A3.24,3.24,0,0,1,78.9,6.86Z"/></svg>