
<svg xmlns="http://www.w3.org/2000/svg" fill="#0c243b" viewBox="0 10 64 40"><path d="m57.04,13.7H6.96c-.53,0-.96.43-.96.96v34.67c0,.53.43.96.96.96h50.07c.53,0,.96-.43.96-.96V14.67c0-.53-.43-.96-.96-.96ZM10.81,32.05h0v-.1c0-.27,0-.54.03-.81,0-.05.02-.1.02-.13.51-6.42,5.88-11.5,12.43-11.53h.04c.29,0,.58,0,.87.03.04,0,.08.02.13.02,6.42.51,11.5,5.87,11.53,12.42h0v.1c0,.27,0,.54-.03.81,0,.05-.02.1-.02.13-.51,6.42-5.88,11.5-12.43,11.53h-.18c-.24,0-.48,0-.72-.03-.04,0-.08-.02-.13-.02-6.42-.51-11.5-5.87-11.53-12.42Zm28.89-1.01h12.52c.53,0,.96.43.96.96s-.43.96-.96.96h-12.52c-.53,0-.96-.43-.96-.96s.43-.96.96-.96Zm-.96-4.81c0-.53.43-.96.96-.96h12.52c.53,0,.96.43.96.96s-.43.96-.96.96h-12.52c-.53,0-.96-.43-.96-.96Zm.96,10.59h12.52c.53,0,.96.43.96.96s-.43.96-.96.96h-12.52c-.53,0-.96-.43-.96-.96s.43-.96.96-.96Zm0,5.78h12.52c.53,0,.96.43.96.96s-.43.96-.96.96h-12.52c-.53,0-.96-.43-.96-.96s.43-.96.96-.96Zm12.52-21.19h-12.52c-.53,0-.96-.43-.96-.96s.43-.96.96-.96h12.52c.53,0,.96.43.96.96s-.43.96-.96.96Z"/><path d="m19.5,31.81c.07-1.39.87-2.57,2.03-3.19-.94-1.27-2.4-2.08-3.89-2.08h-.07c-2.4.06-4.49,2.11-4.8,4.68-.02.26-.04.52-.04.78,0,3.2,1.43,6.06,3.67,7.99-.28-.69-.44-1.43-.46-2.2-.04-2.44,1.34-4.72,3.55-5.99Z"/><path d="m23.53,28.17c1.39.07,2.57.87,3.19,2.03,1.29-.96,2.11-2.45,2.08-3.96-.06-2.4-2.11-4.49-4.69-4.8-.25-.02-.51-.04-.77-.04-3.2,0-6.06,1.43-7.99,3.67.69-.28,1.43-.44,2.2-.46,2.47,0,4.73,1.35,5.99,3.55Z"/><circle cx="23.33" cy="32" r="1.93"/><path d="m27.17,32.19c-.07,1.39-.87,2.57-2.03,3.19.94,1.27,2.4,2.08,3.89,2.08h.07c2.4-.06,4.49-2.11,4.8-4.68.02-.26.04-.52.04-.78,0-3.2-1.43-6.06-3.67-7.99.28.69.44,1.43.46,2.2.04,2.44-1.34,4.72-3.55,5.99Z"/><path d="m23.33,42.59c3.2,0,6.06-1.43,7.99-3.67-.69.28-1.43.44-2.2.46h-.11c-2.41,0-4.63-1.38-5.88-3.55-1.39-.07-2.57-.87-3.19-2.03-1.29.96-2.11,2.45-2.08,3.96.06,2.4,2.11,4.49,4.69,4.8.25.02.51.04.77.04Z"/></svg>