<?xml version="1.0" encoding="UTF-8"?><svg id="Ebene_2" xmlns="http://www.w3.org/2000/svg" viewBox="0 0 156.83 36.58"><defs><style>.cls-1,.cls-2{fill:#444f50;}.cls-3,.cls-4{fill:#578929;}.cls-4,.cls-2{fill-rule:evenodd;}</style></defs><g id="Ebene_2-2"><g><g><path class="cls-4" d="M39.83,6.86c-.15,.07-.3,.3-.44,.43-.02,.02-.06,.03-.09,.02-.06,0-.08,0-.12-.04-.08-.05-.16-.13-.21-.18-.41-.37-.36-.83-.1-1.17,.1-.13,.23-.25,.38-.34,.04-.03,0-.04-.02-.06-.01-.01-.03-.02-.06-.05-.05-.04-.13-.12-.25-.23-.17-.17-.43-.39-.42-.64,0-.34,.53-.46,.4-.94-.03-.12-.09-.25-.2-.33-.38-.28-1.15-.03-1.02,.54,.04,.17,.17,.31,.33,.43,.07,.06,.33,.08,.07,.52-.24,.41-.85,.53-1.16,.05-.07-.11-.09-.26-.08-.4,.03-.3,.45-.44,.38-.77-.08-.4-.57-.7-.97-.52-.23,.11-.4,.34-.52,.55-.02,.07,.02,.08,.06,.12,.29,.31,.64,.73,.23,1.12-.08,.05-.18,.17-.31,.17-.41,0-.85-.33-.64-.81,.09-.19,.32-.37,.44-.51,0-.13-.1-.26-.17-.34-.51-.63-1.1-.35-1.43,.25-.02,.05-.02,.06,0,.09,.07,.06,.11,.09,.17,.15,.11,.11,.23,.21,.27,.35,.13,.38-.14,.77-.53,.79-.39,.02-.7-.34-.59-.73,.05-.17,.25-.34,.39-.48,.03-.03,.08-.08,.08-.12-.01-.09-.05-.14-.09-.21-.23-.29-.33-.49-.77-.48-.43,.02-.67,.41-.67,.67,0,.39,.38,.32,.42,.59,.1,.54-.47,1-.96,.73-.13-.07-.22-.17-.28-.29-.24-.45,.28-.55,.37-.91,.12-.46-.4-.81-.8-.68-.34,.11-.51,.53-.33,.86l.31,.41c.04,.15-.02,.31-.1,.41-.91,1.22-.97-.29-1.75,.15-.28,.16-.37,.57-.21,.85h0c.04,.06,.09,.12,.15,.16,.13,.09,.17,.09,.32,.16,.3,.04,.4-.19,.52-.31,0,0,0,0,.01-.01h0c.04-.07,.17-.3,.49-.12,.06,.04,.11,.08,.16,.12,.28,.28,.34,.77-.04,1.02-.66,.44-.87-.59-1.47-.14-.26,.19-.45,.59-.25,.89l.28,.36c.07,.18,.02,.39-.07,.54-.07,.12-.22,.26-.34,.33-.57,.33-.67-.47-1.27-.26-.72,.25-.38,.97-.04,1.21,.26,.17-.07,.47-.2,.59-.16,.16-.33,.38-.58,.38-.22,0-.35-.23-.52-.33-.38-.2-.82,.03-.92,.4h0s-.02,.1-.02,.15c-.01,.28,.15,.38,.35,.54,.31,.25-.16,.73-.5,.94-.37,.18-.67-.38-1.02-.4-.07,0-.15,.02-.22,.03-.28,.08-.44,.5-.73,.53-.41,.03-.52-.7-1.18-.41-.02,.01-.04,.02-.07,.03l-.08,.05c-.11,.09-.2,.2-.25,.33-.12,.35,.18,.42,.29,.7,.17,.41-.13,.76-.49,.84-.39,.09-.79-.33-.69-.72,.11-.44,.62-.38,.26-.96-.11-.18-.29-.27-.49-.29-.37-.04-.82,.37-.67,.76,.15,.39,.56,.4,.25,.93-.08,.13-.22,.26-.36,.3-.39,.1-.97-.19-.9-.64,.06-.36,.56-.42,.36-.92-.06-.14-.16-.25-.29-.32-.47-.22-.99,.25-.79,.75,.06,.16,.18,.23,.32,.34,.23,.14-.05,.49-.16,.62-.22,.24-.65,.36-.93,.16-.18-.14-.32-.37-.58-.32-.36,.06-.5,.58-.91,.55-.41-.03-.48-.7-1.13-.35-.13,.07-.26,.21-.31,.35-.21,.56,.54,.67,.26,1.25-.04,.08-.09,.14-.15,.19h0c-.09,.09-.21,.16-.31,.24-.26,.03-.46-.1-.63-.24h0c-.23-.19-.39-.39-.57-.17-.05,.06-.06,.07-.12,.13-.01,.01-.02,.02-.04,.04h0c-.16,.16-.34,.39-.55,.41-.24,.02-.43-.28-.68-.41h-.02c-.11-.05-.24-.07-.38,0-.07,.03-.14,.08-.22,.16-.09,.08-.15,.2-.18,.31-.12,.42,.31,.52,.36,.87,.05,.41-.35,.81-.68,.82-.5,0-.49-.43-.96-.39-.37,.03-.74,.49-.53,.88,.11,.21,.35,.31,.32,.6-.04,.37-.26,.64-.58,.72-.55-.04-.53-.35-.89-.37-.3-.02-.56,.16-.66,.42-.05,.12-.06,.26-.01,.41,.07,.23,.36,.35,.37,.61,0,.26-.16,.45-.34,.62-.6,.56-.75-.34-1.38-.17-.38,.1-.54,.61-.31,.94,.12,.17,.24,.26,.36,.31,.4,.22,.57-.81,1.21-.38,.17,.11,.27,.31,.28,.51,.03,.46-.45,.74-.87,.57-.2-.08-.23-.11-.36-.28-.17-.3-.44,.01-.55,.13-.37,.38-.39,.58-.3,.74,.12,.21,.41,.38,.35,.78-.06,.39-.24,.48-.52,.66-.41,.19-.4-.34-.94-.38-.26,0-.49,.19-.56,.42-.11,.35,.26,.96,.67,.82,.4-.14,.52-.73,1.06-.25,.13,.12,.23,.29,.21,.49-.05,.4-.5,.75-.91,.52-.15-.08-.27-.29-.44-.32-.2-.03-.44,.14-.55,.29-.05,.07-.09,.15-.14,.24-.02,.05-.02,.12-.03,.18,0,.24,.16,.4,.3,.54,.1,.12,.19,.23,.19,.38-.02,.35-.52,.46-.51,.91v.09c.06,.31,.56,.55,.55,.82-.02,.35-.65,.42-.44,1.07,.04,.12,.17,.26,.28,.32,.65,.33,.89-.56,1.33-.31,.24,.13,.4,.46,.67,.51,.41,.08,.57-.44,.99-.44s.54,.46,.87,.49c.35,.03,.51-.46,.86-.49,.53-.04,.54,.4,.92,.48,.36,.07,.58-.45,.91-.5,.28-.04,.43,.13,.62,.29,.48,.38,.86-.1,1.15-.44,.28-.33,.5,.59,1.12,.44,.4-.1,.53-.54,.35-.91-.14-.28-.52-.33-.39-.54,.16-.34,.54-.46,.64-.83,.11-.45-.67-.63-.33-1.26,.01-.03,.03-.05,.05-.08,.07-.09,.15-.18,.25-.22,.12-.06,.34-.14,.47-.06l.38,.28h.02c.14,.08,.31,.06,.46,0h0c.1-.04,.19-.11,.25-.19,.52-.67-.51-.94-.19-1.47,.12-.21,.51-.66,.8-.53,.37,.17,.52,.58,1.05,.28,.12-.07,.19-.18,.24-.3,.21-.51-.24-.57-.32-.92-.05-.22,.11-.46,.26-.59,.72-.67,.93,.45,1.64,.08,.11-.05,.28-.19,.37-.36,.07-.13,.08-.28-.05-.43-.1-.13-.12-.18-.22-.31-.19-.39,.07-.82,.46-.89,.38-.07,.85,.35,.71,.75-.12,.34-.58,.4-.32,.87,0,0,0,.02,.01,.02,.09,.15,.24,.26,.42,.3,.18,.04,.37-.01,.51-.11,.07-.05,.12-.13,.16-.21,.02-.04,.03-.08,.05-.12,.14-.45-.42-.58-.36-.97,.04-.22,.18-.39,.37-.51,.64-.4,.76,.13,1.12,.41,.13,.13,.36-.12,.44-.22,.34-.42,.72-.45,1.14-.06,.09,.09,.2,.21,.34,.21,.01,0,.02,0,.03,0,.36-.04,.5-.5,.87-.52,.52-.04,.58,.62,1.21,.35,.14-.06,.65-.49,.5-.67-.1-.11-.15-.18-.25-.29-.26-.3-.2-.79,.16-.96,.43-.21,.97,.19,.84,.68-.06,.24-.26,.31-.4,.51-.11,.1-.06,.18-.05,.21,.23,.4,.63,.66,1.11,.35,.24-.16,.32-.53,.14-.78l-.24-.31c-.1-.29,.12-.64,.37-.76,.65-.3,.71,.28,1.12,.33,.09,0,.18-.01,.25-.04,.25-.11,.42-.51,.71-.54,.36-.04,.5,.57,1.04,.4,.12-.04,.24-.1,.33-.21,0,0,.01-.02,.02-.03,.12-.18,.13-.33,.09-.46-.11-.4-.64-.66-.08-1.18,.17-.16,.42-.3,.67-.21,.12,.09,.24,.19,.36,.28,.29,.19,.68,0,.85-.27,.41-.64-.76-.96-.04-1.64,.7-.66,1.11,.68,1.74-.03,.42-.48,.15-.61-.06-.95h0s-.03-.06-.05-.09c-.16-.3,.04-.66,.27-.83,.65-.47,.95,.62,1.55,.09,.28-.25,.34-.63,.09-.92-.09-.11-.23-.21-.25-.34-.06-.29,.42-.74,.63-.88,.05-.03,.07-.11,.05-.16-.03-.1-.17-.18-.25-.26-.29-.28-.36-.71-.09-1.03,.16-.2,.56-.27,.79-.11,.12,.09,.23,.17,.34,.26,.33,.12,.68-.23,.75-.5,.02-.08,.03-.16,.02-.22h0c-.03-.35-.42-.45-.44-.77-.03-.39,.46-.52,.54-.86,.11-.48-.66-.65-.36-1.27,.12-.25,.29-.35,.47-.55,.02-.03,.16-.05,.2-.03,.29,.12,.42,.69,.99,.41,.14-.07,.23-.21,.25-.36,.07-.46-.32-.84-.75-.64ZM4.3,27.94c.09-.08,.21-.13,.33-.13s.25,.05,.33,.13c.11,.09,.17,.22,.17,.37,0,.28-.23,.51-.51,.51s-.5-.23-.5-.51c0-.15,.07-.28,.17-.38Zm.35,2.88c-.35,0-.63-.28-.63-.63s.28-.63,.63-.63,.63,.29,.63,.63-.28,.63-.63,.63Zm2.28-2.48c0,.23-.18,.41-.41,.41s-.41-.19-.41-.41c0-.19,.12-.34,.29-.39,.04-.01,.08-.02,.12-.02s.08,0,.12,.02c.17,.05,.29,.21,.29,.39Zm-.78-1.86c0-.19,.15-.34,.34-.34s.34,.15,.34,.34-.15,.34-.34,.34-.34-.15-.34-.34Zm.28-2.16c.23,0,.41,.18,.41,.41s-.18,.41-.41,.41-.41-.18-.41-.41,.19-.41,.41-.41Zm.11,6.5c-.35,0-.63-.28-.63-.63s.28-.63,.63-.63,.63,.29,.63,.63-.28,.63-.63,.63Zm1.78-10.16c.21,0,.38,.17,.38,.38s-.17,.38-.38,.38-.38-.17-.38-.38,.17-.38,.38-.38Zm0,4.36c-.17,0-.32-.14-.32-.32s.14-.32,.32-.32,.32,.14,.32,.32-.14,.32-.32,.32Zm.32,1.47c0,.17-.14,.32-.32,.32s-.32-.14-.32-.32,.14-.32,.32-.32,.32,.14,.32,.32Zm-.32-3.3c-.17,0-.32-.14-.32-.31s.14-.32,.32-.32,.32,.14,.32,.32-.14,.31-.32,.31Zm-.11,4.76s.08-.02,.12-.02,.08,0,.12,.02c.17,.05,.29,.21,.29,.39,0,.23-.18,.41-.41,.41s-.41-.19-.41-.41c0-.19,.12-.34,.29-.39Zm.11,2.87c-.35,0-.63-.28-.63-.63s.28-.63,.63-.63,.63,.29,.63,.63-.28,.63-.63,.63Zm1.85-12.05c.23,0,.41,.19,.41,.41s-.19,.41-.41,.41-.41-.18-.41-.41,.18-.41,.41-.41Zm-.03,3.79c.17,0,.32,.14,.32,.32s-.14,.31-.32,.31-.32-.14-.32-.31,.14-.32,.32-.32Zm-.28-1.56c0-.18,.15-.33,.33-.33s.33,.15,.33,.33-.15,.33-.33,.33-.33-.14-.33-.33Zm.28,3.39c.17,0,.32,.14,.32,.32s-.14,.32-.32,.32-.32-.14-.32-.32,.14-.32,.32-.32Zm.04,1.73c.2,0,.37,.17,.37,.37s-.17,.37-.37,.37-.37-.17-.37-.37,.17-.37,.37-.37Zm-.29,1.83c.08-.06,.18-.09,.28-.09s.2,.04,.28,.09c.12,.09,.19,.22,.19,.38,0,.26-.21,.47-.47,.47s-.47-.21-.47-.47c0-.16,.07-.29,.19-.38Zm.25,2.87c-.35,0-.63-.28-.63-.63s.28-.63,.63-.63,.63,.29,.63,.63-.28,.63-.63,.63Zm2.42-4.3c0,.28-.23,.51-.51,.51s-.5-.23-.5-.51,.23-.51,.5-.51,.51,.23,.51,.51Zm-.61-5.8c.17,0,.31,.14,.31,.31s-.14,.32-.31,.32-.31-.14-.31-.32,.14-.31,.31-.31Zm-.29-1.53c0-.17,.14-.31,.32-.31s.31,.14,.31,.31-.14,.32-.31,.32-.32-.14-.32-.32Zm.33,3.25c.21,0,.37,.17,.37,.37s-.17,.37-.37,.37-.37-.17-.37-.37,.17-.37,.37-.37Zm.02,1.85c.23,0,.41,.18,.41,.41s-.18,.41-.41,.41-.41-.18-.41-.41,.18-.41,.41-.41Zm-.03-7.49c.28,0,.5,.22,.5,.5s-.22,.5-.5,.5-.5-.22-.5-.5,.23-.5,.5-.5Zm-.37,11.14c.1-.11,.25-.18,.41-.18s.31,.07,.41,.17c.1,.11,.16,.24,.16,.4,0,.31-.26,.57-.57,.57s-.57-.25-.57-.57c0-.15,.06-.29,.16-.39Zm.39,2.89c-.35,0-.63-.28-.63-.63s.28-.63,.63-.63,.63,.28,.63,.63-.28,.63-.63,.63Zm2.25-7.97c0,.23-.18,.41-.41,.41s-.41-.18-.41-.41,.18-.41,.41-.41,.41,.18,.41,.41Zm.05,1.87c0,.23-.18,.41-.41,.41s-.41-.18-.41-.41,.18-.41,.41-.41,.41,.18,.41,.41Zm-.54-4.02c.17,0,.31,.14,.31,.31s-.14,.32-.31,.32-.31-.14-.31-.32,.14-.31,.31-.31Zm-.29-1.53c0-.17,.14-.31,.31-.31s.31,.14,.31,.31-.14,.32-.31,.32-.31-.14-.31-.32Zm.28-2.29c.25,0,.45,.2,.45,.45s-.2,.45-.45,.45-.45-.2-.45-.45,.2-.45,.45-.45Zm.02,10.42c-.35,0-.63-.29-.63-.63s.28-.63,.63-.63,.63,.28,.63,.63-.28,.63-.63,.63Zm2.38-4.39c0,.25-.2,.44-.45,.44s-.44-.2-.44-.44,.2-.45,.44-.45,.45,.2,.45,.45Zm-.55-4.05c.17,0,.31,.14,.31,.31s-.14,.32-.31,.32-.31-.14-.31-.32,.14-.31,.31-.31Zm-.28-1.54c0-.17,.14-.31,.31-.31s.31,.14,.31,.31-.14,.31-.31,.31-.31-.14-.31-.31Zm.32,3.33c.23,0,.41,.18,.41,.41s-.18,.41-.41,.41-.41-.18-.41-.41,.19-.41,.41-.41Zm-.11-5.72c.3,0,.55,.25,.55,.55,0,.18-.09,.34-.22,.44h0c-.09,.07-.21,.12-.33,.12s-.24-.04-.33-.12h0c-.13-.1-.22-.26-.22-.44,0-.3,.25-.55,.55-.55Zm.07,10.41c-.32,0-.57-.26-.57-.57s.26-.57,.57-.57,.57,.26,.57,.57-.26,.57-.57,.57Zm1.83-10.31c.27,0,.49,.22,.49,.49,0,.16-.08,.3-.19,.39h0c-.08,.06-.18,.1-.29,.1s-.21-.04-.29-.09h0c-.12-.09-.2-.24-.2-.4,0-.27,.22-.49,.49-.49Zm-.03,3.86c.17,0,.31,.14,.31,.32s-.14,.31-.31,.31-.31-.14-.31-.31,.14-.32,.31-.32Zm-.32-1.47c0-.17,.14-.32,.32-.32s.31,.14,.31,.32-.14,.31-.31,.31-.32-.14-.32-.31Zm.36,3.3c.17,0,.31,.14,.31,.31s-.14,.31-.31,.31-.31-.14-.31-.31,.14-.31,.31-.31Zm0,2.83c-.31,0-.57-.26-.57-.57s.26-.57,.57-.57,.57,.25,.57,.57-.26,.57-.57,.57Zm1.83-8.48c.24,0,.43,.19,.43,.43,0,.21-.15,.38-.35,.41h0s-.06,.02-.09,.02c-.03,0-.06,0-.09-.02h-.01c-.19-.05-.33-.21-.33-.41,0-.24,.19-.43,.43-.43Zm-.14,2.03c.17,0,.31,.14,.31,.32s-.14,.31-.31,.31-.31-.14-.31-.31,.14-.32,.31-.32Zm.36,2.14c0,.16-.13,.29-.29,.29s-.29-.13-.29-.29,.13-.29,.29-.29,.29,.13,.29,.29Zm-.19,2.28c-.24,0-.43-.19-.43-.43s.19-.43,.43-.43,.43,.19,.43,.43-.19,.43-.43,.43Zm1.74-6.31c.21,0,.38,.17,.38,.38,0,.13-.06,.24-.16,.31h0c-.06,.04-.13,.07-.21,.07s-.15-.02-.21-.06h0c-.1-.08-.17-.19-.17-.32,0-.21,.17-.38,.38-.38Zm.25,4.03c0,.16-.13,.29-.29,.29s-.29-.13-.29-.29,.13-.29,.29-.29,.29,.13,.29,.29Zm-.32-2.14c.17,0,.31,.14,.31,.32s-.14,.31-.31,.31-.32-.14-.32-.31,.14-.32,.32-.32Zm.06,4.44c-.25,0-.46-.21-.46-.46s.21-.46,.46-.46,.46,.2,.46,.46-.21,.46-.46,.46Zm1.23-7.87c0-.29,.23-.51,.51-.51s.51,.23,.51,.51-.23,.51-.51,.51-.51-.23-.51-.51Zm.53,1.55c.21,0,.38,.17,.38,.38,0,.13-.06,.24-.16,.31h0c-.06,.04-.13,.07-.21,.07s-.15-.02-.21-.06h0c-.1-.08-.17-.19-.17-.32,0-.21,.17-.38,.38-.38Zm.33,2.2c0,.17-.14,.31-.32,.31s-.31-.14-.31-.31,.14-.32,.31-.32,.32,.14,.32,.32Zm-.32,1.52c.17,0,.32,.14,.32,.32s-.14,.31-.32,.31-.31-.14-.31-.31,.14-.32,.31-.32Zm.14,2.62c-.25,0-.46-.21-.46-.46s.21-.46,.46-.46,.46,.21,.46,.46-.21,.46-.46,.46Zm1.68-8.3c.26,0,.46,.21,.46,.46s-.21,.47-.46,.47-.46-.21-.46-.47,.21-.46,.46-.46Zm.01,3.84c.17,0,.31,.14,.31,.32s-.14,.31-.31,.31-.32-.14-.32-.31,.14-.32,.32-.32Zm-.29-1.55c0-.17,.14-.32,.31-.32s.31,.14,.31,.32-.14,.32-.31,.32-.31-.14-.31-.32Zm.29,3.33c.2,0,.36,.16,.36,.36s-.16,.36-.36,.36-.36-.16-.36-.36,.16-.36,.36-.36Zm.12,2.79c-.28,0-.51-.23-.51-.51s.23-.51,.51-.51,.51,.23,.51,.51-.23,.51-.51,.51Zm1.16-9.81c0-.25,.2-.45,.45-.45s.45,.2,.45,.45-.2,.46-.45,.46-.45-.2-.45-.46Zm.52,7.75c-.2,0-.36-.16-.36-.36s.16-.36,.36-.36,.36,.16,.36,.36-.16,.36-.36,.36Zm0-2.48c.17,0,.31,.14,.31,.32s-.14,.31-.31,.31-.31-.14-.31-.31,.14-.32,.31-.32Zm-.28-1.54c0-.18,.14-.31,.31-.31s.32,.14,.32,.31-.14,.31-.32,.31-.31-.14-.31-.31Zm.28-1.47c-.23,0-.41-.18-.41-.41s.18-.41,.41-.41,.41,.18,.41,.41-.18,.41-.41,.41Zm1.74-4.58c.28,0,.5,.23,.5,.5s-.23,.51-.5,.51-.51-.23-.51-.51,.23-.5,.51-.5Zm.11,5.74c.17,0,.32,.14,.32,.32s-.14,.31-.32,.31-.31-.14-.31-.31,.14-.32,.31-.32Zm-.29-1.53c0-.17,.14-.32,.32-.32s.31,.14,.31,.32-.14,.32-.31,.32-.32-.14-.32-.32Zm.32,3.38c.17,0,.31,.14,.31,.32s-.14,.31-.31,.31-.31-.14-.31-.31,.14-.32,.31-.32Zm-.09-4.8c-.23,0-.41-.18-.41-.41s.18-.41,.41-.41,.41,.19,.41,.41-.18,.41-.41,.41Zm.07,7.44c-.27,0-.48-.22-.48-.48s.22-.48,.48-.48,.48,.22,.48,.48-.21,.48-.48,.48Zm9.15-12.79c-.28,0-.5-.23-.5-.51s.23-.5,.5-.5,.51,.23,.51,.5-.23,.51-.51,.51Zm.51,1.34c0,.28-.23,.51-.51,.51s-.5-.23-.5-.51,.23-.5,.5-.5,.51,.23,.51,.5Zm-2.39-1.46c-.23,0-.41-.18-.41-.41s.18-.41,.41-.41,.41,.18,.41,.41-.18,.41-.41,.41Zm.35,1.45c0,.17-.14,.32-.32,.32s-.32-.14-.32-.32,.14-.32,.32-.32,.32,.14,.32,.32Zm-.35,1.43c.23,0,.41,.19,.41,.41s-.18,.41-.41,.41-.41-.18-.41-.41,.18-.41,.41-.41Zm.06,1.74c.28,0,.51,.23,.51,.51s-.23,.5-.51,.5-.5-.22-.5-.5,.23-.51,.5-.51Zm-1.86-1.71c.17,0,.32,.14,.32,.32s-.14,.32-.32,.32-.31-.14-.31-.32,.14-.32,.31-.32Zm-.31-1.47c0-.17,.14-.32,.31-.32s.32,.14,.32,.32-.14,.32-.32,.32-.31-.14-.31-.32Zm.31,3.3c.17,0,.32,.14,.32,.32s-.14,.32-.32,.32-.31-.14-.31-.32,.14-.32,.31-.32Zm0,1.77c.21,0,.38,.17,.38,.38s-.17,.38-.38,.38-.38-.17-.38-.38,.17-.38,.38-.38Zm0-6.51c-.23,0-.41-.18-.41-.41s.18-.41,.41-.41,.41,.18,.41,.41-.18,.41-.41,.41Zm-1.81,5.38c-.17,0-.31-.14-.31-.32s.14-.32,.31-.32,.32,.14,.32,.32-.14,.32-.32,.32Zm.28,1.56c0,.18-.15,.33-.33,.33s-.33-.15-.33-.33,.15-.33,.33-.33,.33,.15,.33,.33Zm-.28-3.39c-.17,0-.31-.14-.31-.32s.14-.32,.31-.32,.32,.14,.32,.32-.14,.32-.32,.32Zm-.04-1.73c-.2,0-.37-.17-.37-.37s.17-.37,.37-.37,.37,.17,.37,.37-.17,.37-.37,.37Zm.01,6.52c.23,0,.41,.19,.41,.42,0,.13-.06,.25-.15,.32h0c-.07,.06-.16,.1-.26,.1s-.19-.03-.26-.1h0c-.09-.08-.15-.19-.15-.32,0-.23,.18-.42,.41-.42Zm0-8.26c-.26,0-.47-.21-.47-.47s.21-.47,.47-.47,.47,.21,.47,.47-.21,.47-.47,.47Zm-1.88,.83c.28,0,.51,.23,.51,.5s-.23,.5-.51,.5-.51-.23-.51-.5,.23-.5,.51-.5Zm.11,6.31c-.17,0-.31-.14-.31-.32s.14-.32,.31-.32,.31,.14,.31,.32-.14,.32-.31,.32Zm.29,1.53c0,.17-.14,.31-.31,.31s-.31-.14-.31-.31,.14-.32,.31-.32,.31,.14,.31,.32Zm-.33-3.26c-.21,0-.37-.17-.37-.37s.17-.37,.37-.37,.37,.17,.37,.37-.17,.37-.37,.37Zm-.02-1.85c-.23,0-.41-.18-.41-.41s.18-.41,.41-.41,.41,.19,.41,.41-.18,.41-.41,.41Zm.03,6.58c.23,0,.41,.18,.41,.41s-.19,.41-.41,.41-.42-.18-.42-.41,.19-.41,.42-.41Zm.34,2.86c-.08,.03-.16,.05-.25,.05s-.17-.02-.25-.05c-.23-.1-.39-.33-.39-.59,0-.35,.29-.64,.64-.64s.64,.28,.64,.64c0,.26-.16,.49-.39,.59Zm1.51-1.95c-.31,0-.57-.25-.57-.57s.26-.57,.57-.57,.57,.25,.57,.57-.26,.57-.57,.57Zm2.33-2.05c-.09,.19-.29,.32-.51,.32s-.42-.13-.51-.32h0c-.04-.08-.06-.16-.06-.25,0-.32,.25-.57,.57-.57s.57,.25,.57,.57c0,.09-.02,.17-.06,.25Zm1.36-1.52c-.32,0-.58-.26-.58-.58s.26-.58,.58-.58,.58,.26,.58,.58-.26,.58-.58,.58Zm1.84-3.67c-.32,0-.58-.26-.58-.58s.26-.58,.58-.58,.58,.26,.58,.58-.26,.58-.58,.58Z"/><path class="cls-3" d="M5.42,34.9c0-.12,.1-.22,.22-.22s.22,.1,.22,.22-.1,.22-.22,.22-.22-.1-.22-.22h0Z"/><path class="cls-3" d="M7.2,34.9c0-.14,.11-.25,.25-.25s.25,.11,.25,.25-.11,.25-.25,.25-.25-.11-.25-.25h0Z"/><path class="cls-3" d="M9.01,34.9c0-.14,.11-.25,.25-.25s.25,.11,.25,.25-.11,.25-.25,.25-.25-.11-.25-.25h0Z"/><path class="cls-3" d="M10.85,34.9c0-.12,.1-.22,.22-.22s.22,.1,.22,.22-.1,.22-.22,.22-.22-.1-.22-.22h0Z"/><path class="cls-3" d="M12.69,34.9c0-.1,.09-.19,.19-.19s.19,.08,.19,.19-.09,.19-.19,.19-.19-.09-.19-.19h0Z"/><path class="cls-3" d="M14.56,34.9c0-.07,.06-.13,.13-.13s.13,.06,.13,.13-.06,.13-.13,.13-.13-.06-.13-.13h0Z"/><path class="cls-3" d="M3.65,34.9c0-.1,.08-.19,.19-.19s.19,.08,.19,.19-.08,.19-.19,.19-.19-.09-.19-.19h0Z"/><path class="cls-3" d="M1.9,34.9c0-.07,.06-.13,.13-.13s.13,.06,.13,.13-.06,.13-.13,.13-.13-.06-.13-.13h0Z"/><path class="cls-3" d="M5.17,33.07c0-.26,.21-.48,.47-.48s.47,.21,.47,.48-.21,.47-.47,.47-.47-.21-.47-.47h0Z"/><path class="cls-3" d="M6.98,33.07c0-.26,.21-.48,.47-.48s.47,.21,.47,.48-.21,.47-.47,.47-.47-.21-.47-.47h0Z"/><path class="cls-3" d="M8.79,33.07c0-.26,.21-.48,.47-.48s.47,.21,.47,.48-.21,.47-.47,.47-.47-.21-.47-.47h0Z"/><path class="cls-3" d="M10.6,33.07c0-.26,.21-.48,.48-.48s.47,.21,.47,.48-.21,.47-.47,.47-.48-.21-.48-.47h0Z"/><path class="cls-3" d="M12.5,33.07c0-.21,.17-.38,.38-.38s.38,.17,.38,.38-.17,.38-.38,.38-.38-.17-.38-.38h0Z"/><path class="cls-3" d="M14.47,33.07c0-.12,.1-.22,.22-.22s.22,.1,.22,.22-.1,.22-.22,.22-.22-.1-.22-.22h0Z"/><path class="cls-3" d="M16.37,33.07c0-.07,.06-.13,.13-.13s.13,.06,.13,.13c0,.07-.06,.12-.13,.12s-.13-.06-.13-.12h0Z"/><path class="cls-3" d="M3.36,33.07c0-.26,.21-.48,.47-.48s.47,.21,.47,.48-.21,.47-.47,.47-.47-.21-.47-.47h0Z"/><path class="cls-3" d="M1.75,33.07c0-.16,.13-.29,.28-.29s.29,.13,.29,.29-.13,.28-.29,.28-.28-.13-.28-.28h0Z"/><path class="cls-3" d="M.1,33.07c0-.07,.06-.13,.13-.13s.13,.06,.13,.13c0,.07-.06,.12-.13,.12s-.13-.06-.13-.12H.1Z"/><path class="cls-3" d="M14.31,31.24c0-.21,.17-.38,.38-.38s.38,.17,.38,.38-.17,.38-.38,.38-.38-.17-.38-.38h0Z"/><path class="cls-3" d="M16.37,31.24c0-.07,.06-.13,.13-.13s.13,.06,.13,.13-.06,.13-.13,.13-.13-.06-.13-.13h0Z"/><path class="cls-3" d="M1.65,31.24c0-.21,.17-.38,.38-.38s.38,.17,.38,.38-.17,.38-.38,.38-.38-.17-.38-.38h0Z"/><path class="cls-3" d="M.06,31.24c0-.08,.07-.16,.16-.16s.16,.07,.16,.16-.07,.16-.16,.16-.16-.07-.16-.16H.06Z"/><path class="cls-3" d="M14.21,29.41c0-.26,.21-.47,.47-.47s.48,.21,.48,.47-.21,.48-.48,.48-.47-.21-.47-.48h0Z"/><path class="cls-3" d="M16.24,29.41c0-.14,.11-.25,.25-.25s.25,.12,.25,.25-.11,.25-.25,.25-.25-.11-.25-.25h0Z"/><path class="cls-3" d="M18.18,29.41c0-.07,.06-.13,.13-.13s.13,.06,.13,.13-.06,.13-.13,.13-.13-.06-.13-.13h0Z"/><path class="cls-3" d="M1.56,29.41c0-.26,.21-.47,.47-.47s.47,.21,.47,.47-.21,.48-.47,.48-.47-.21-.47-.48h0Z"/><path class="cls-3" d="M0,29.41c0-.12,.1-.22,.22-.22s.22,.1,.22,.22-.1,.22-.22,.22-.22-.1-.22-.22H0Z"/><path class="cls-3" d="M16.05,27.58c0-.24,.2-.44,.44-.44s.44,.2,.44,.44-.2,.44-.44,.44-.44-.2-.44-.44h0Z"/><path class="cls-3" d="M18.08,27.58c0-.12,.1-.22,.22-.22s.22,.1,.22,.22-.1,.22-.22,.22-.22-.1-.22-.22h0Z"/><path class="cls-3" d="M19.98,27.58c0-.07,.06-.13,.13-.13s.13,.06,.13,.13-.06,.13-.13,.13-.13-.06-.13-.13h0Z"/><path class="cls-3" d="M21.79,27.58c0-.07,.06-.13,.13-.13s.13,.06,.13,.13-.06,.13-.13,.13-.13-.06-.13-.13h0Z"/><path class="cls-3" d="M23.6,27.58c0-.07,.06-.13,.13-.13s.13,.06,.13,.13-.06,.13-.13,.13-.13-.06-.13-.13h0Z"/><path class="cls-3" d="M1.62,27.58c0-.23,.18-.41,.41-.41s.41,.18,.41,.41-.18,.41-.41,.41-.41-.18-.41-.41h0Z"/><path class="cls-3" d="M.06,27.58c0-.09,.07-.16,.16-.16s.16,.07,.16,.16-.07,.16-.16,.16-.16-.07-.16-.16H.06Z"/><path class="cls-3" d="M25.34,25.75c0-.1,.08-.19,.19-.19s.19,.09,.19,.19-.08,.19-.19,.19-.19-.08-.19-.19h0Z"/><path class="cls-3" d="M27.18,25.75c0-.09,.07-.16,.16-.16s.16,.07,.16,.16-.07,.16-.16,.16-.16-.07-.16-.16h0Z"/><path class="cls-3" d="M29.02,25.75c0-.07,.06-.12,.13-.12s.12,.05,.12,.12-.06,.13-.12,.13-.13-.06-.13-.13h0Z"/><path class="cls-3" d="M17.83,25.75c0-.26,.21-.47,.47-.47s.47,.21,.47,.47-.21,.48-.47,.48-.47-.21-.47-.48h0Z"/><path class="cls-3" d="M19.79,25.75c0-.17,.14-.32,.31-.32s.32,.14,.32,.32-.14,.32-.32,.32-.31-.14-.31-.32h0Z"/><path class="cls-3" d="M21.63,25.75c0-.15,.13-.28,.28-.28s.28,.13,.28,.28-.13,.29-.28,.29-.28-.13-.28-.29h0Z"/><path class="cls-3" d="M23.51,25.75c0-.12,.1-.22,.22-.22s.22,.1,.22,.22c0,.13-.1,.22-.22,.22s-.22-.1-.22-.22h0Z"/><path class="cls-3" d="M1.71,25.75c0-.17,.14-.32,.32-.32s.32,.14,.32,.32-.14,.32-.32,.32-.32-.14-.32-.32h0Z"/><path class="cls-3" d="M.1,25.75c0-.07,.06-.12,.13-.12s.13,.05,.13,.12-.06,.13-.13,.13-.13-.06-.13-.13H.1Z"/><path class="cls-3" d="M25.09,23.92c0-.25,.2-.44,.44-.44s.44,.2,.44,.44-.2,.45-.44,.45-.44-.2-.44-.45h0Z"/><path class="cls-3" d="M26.96,23.92c0-.21,.17-.38,.38-.38s.38,.17,.38,.38-.17,.38-.38,.38-.38-.17-.38-.38h0Z"/><path class="cls-3" d="M28.93,23.92c0-.12,.1-.22,.22-.22s.22,.1,.22,.22-.1,.22-.22,.22-.22-.1-.22-.22h0Z"/><path class="cls-3" d="M30.8,23.92c0-.09,.07-.16,.16-.16s.16,.07,.16,.16-.07,.16-.16,.16-.16-.07-.16-.16h0Z"/><path class="cls-3" d="M32.64,23.92c0-.07,.06-.13,.13-.13s.13,.06,.13,.13-.06,.13-.13,.13-.13-.06-.13-.13h0Z"/><path class="cls-3" d="M21.41,23.92c0-.28,.23-.5,.51-.5s.5,.23,.5,.5-.23,.5-.5,.5-.51-.23-.51-.5h0Z"/><path class="cls-3" d="M23.25,23.92c0-.26,.21-.47,.47-.47s.47,.21,.47,.47-.21,.47-.47,.47-.47-.21-.47-.47h0Z"/><path class="cls-3" d="M3.33,23.92c0-.28,.23-.5,.51-.5s.51,.23,.51,.5-.23,.5-.51,.5-.51-.23-.51-.5h0Z"/><path class="cls-3" d="M1.78,23.92c0-.14,.11-.25,.25-.25s.25,.11,.25,.25-.11,.25-.25,.25-.25-.11-.25-.25h0Z"/><path class="cls-3" d="M.1,23.92c0-.07,.06-.13,.13-.13s.13,.06,.13,.13-.06,.13-.13,.13-.13-.06-.13-.13H.1Z"/><path class="cls-3" d="M28.64,22.09c0-.28,.23-.51,.51-.51s.5,.23,.5,.51-.23,.51-.5,.51-.51-.23-.51-.51h0Z"/><path class="cls-3" d="M30.58,22.09c0-.21,.17-.38,.38-.38s.38,.17,.38,.38-.17,.38-.38,.38-.38-.17-.38-.38h0Z"/><path class="cls-3" d="M32.51,22.09c0-.14,.11-.25,.25-.25s.25,.11,.25,.25-.11,.25-.25,.25-.25-.11-.25-.25h0Z"/><path class="cls-3" d="M34.45,22.09c0-.07,.06-.13,.13-.13s.13,.06,.13,.13-.06,.13-.13,.13-.13-.06-.13-.13h0Z"/><path class="cls-3" d="M3.46,22.09c0-.21,.17-.38,.38-.38s.38,.17,.38,.38-.17,.38-.38,.38-.38-.17-.38-.38h0Z"/><path class="cls-3" d="M1.87,22.09c0-.09,.07-.16,.16-.16s.16,.07,.16,.16-.07,.16-.16,.16-.16-.07-.16-.16h0Z"/><path class="cls-3" d="M32.29,20.26c0-.26,.21-.47,.47-.47s.47,.21,.47,.47-.21,.48-.47,.48-.47-.21-.47-.48h0Z"/><path class="cls-3" d="M34.29,20.26c0-.16,.13-.28,.28-.28s.29,.13,.29,.28-.13,.29-.29,.29-.28-.13-.28-.29h0Z"/><path class="cls-3" d="M36.26,20.26c0-.07,.06-.12,.13-.12s.13,.06,.13,.12-.06,.13-.13,.13-.13-.06-.13-.13h0Z"/><path class="cls-3" d="M5.17,20.26c0-.26,.21-.47,.47-.47s.47,.21,.47,.47-.21,.48-.47,.48-.47-.21-.47-.48h0Z"/><path class="cls-3" d="M3.62,20.26c0-.12,.1-.22,.22-.22s.22,.1,.22,.22-.1,.22-.22,.22-.22-.1-.22-.22h0Z"/><path class="cls-3" d="M1.9,20.26c0-.07,.06-.12,.13-.12s.13,.06,.13,.12-.06,.13-.13,.13-.13-.06-.13-.13h0Z"/><path class="cls-3" d="M34.1,18.43c0-.26,.21-.47,.47-.47s.47,.21,.47,.47-.21,.47-.47,.47-.47-.21-.47-.47h0Z"/><path class="cls-3" d="M36.1,18.43c0-.16,.13-.29,.28-.29s.28,.13,.28,.29-.13,.29-.28,.29-.28-.13-.28-.29h0Z"/><path class="cls-3" d="M38.06,18.43c0-.07,.06-.13,.13-.13s.13,.06,.13,.13-.06,.13-.13,.13-.13-.06-.13-.13h0Z"/><path class="cls-3" d="M5.39,18.43c0-.14,.11-.25,.25-.25s.25,.11,.25,.25-.11,.25-.25,.25-.25-.11-.25-.25h0Z"/><path class="cls-3" d="M6.95,18.43c0-.28,.23-.51,.51-.51s.5,.23,.5,.51-.23,.51-.5,.51-.51-.23-.51-.51h0Z"/><path class="cls-3" d="M3.71,18.43c0-.07,.06-.13,.13-.13s.13,.06,.13,.13-.06,.13-.13,.13-.13-.06-.13-.13h0Z"/><path class="cls-3" d="M35.91,16.6c0-.26,.21-.47,.47-.47s.47,.21,.47,.47-.21,.47-.47,.47-.47-.21-.47-.47h0Z"/><path class="cls-3" d="M37.94,16.6c0-.14,.11-.25,.25-.25s.25,.11,.25,.25-.11,.25-.25,.25-.25-.11-.25-.25h0Z"/><path class="cls-3" d="M39.87,16.6c0-.07,.06-.13,.13-.13s.13,.05,.13,.13-.06,.13-.13,.13-.13-.06-.13-.13h0Z"/><path class="cls-3" d="M5.52,16.6c0-.07,.06-.13,.13-.13s.13,.05,.13,.13-.06,.13-.13,.13-.13-.06-.13-.13h0Z"/><path class="cls-3" d="M7.17,16.6c0-.16,.13-.29,.28-.29s.28,.13,.28,.29-.13,.28-.28,.28-.28-.12-.28-.28h0Z"/><path class="cls-3" d="M8.79,16.6c0-.26,.21-.47,.47-.47s.47,.21,.47,.47-.21,.47-.47,.47-.47-.21-.47-.47h0Z"/><path class="cls-3" d="M37.81,14.77c0-.21,.17-.38,.38-.38s.38,.17,.38,.38-.17,.38-.38,.38-.38-.17-.38-.38h0Z"/><path class="cls-3" d="M39.81,14.77c0-.1,.09-.19,.19-.19s.19,.09,.19,.19-.08,.19-.19,.19-.19-.09-.19-.19h0Z"/><path class="cls-3" d="M7.33,14.77c0-.07,.06-.12,.13-.12s.13,.06,.13,.12-.06,.13-.13,.13-.13-.06-.13-.13h0Z"/><path class="cls-3" d="M9.01,14.77c0-.14,.11-.25,.25-.25s.25,.11,.25,.25-.11,.25-.25,.25-.25-.11-.25-.25h0Z"/><path class="cls-3" d="M10.69,14.77c0-.21,.17-.38,.38-.38s.38,.17,.38,.38-.17,.38-.38,.38-.38-.17-.38-.38h0Z"/><path class="cls-3" d="M12.25,14.77c0-.35,.28-.63,.63-.63s.63,.28,.63,.63-.28,.63-.63,.63-.63-.28-.63-.63h0Z"/><path class="cls-3" d="M37.56,12.94c0-.35,.28-.63,.63-.63s.63,.28,.63,.63-.28,.63-.63,.63-.63-.28-.63-.63h0Z"/><path class="cls-3" d="M39.71,12.94c0-.16,.13-.29,.28-.29s.28,.13,.28,.29-.13,.28-.28,.28-.28-.12-.28-.28h0Z"/><path class="cls-3" d="M41.68,12.94c0-.07,.06-.13,.13-.13s.13,.06,.13,.13-.06,.13-.13,.13-.13-.06-.13-.13h0Z"/><path class="cls-3" d="M9.14,12.94c0-.07,.06-.13,.12-.13s.13,.06,.13,.13-.06,.13-.13,.13-.12-.06-.12-.13h0Z"/><path class="cls-3" d="M10.88,12.94c0-.11,.09-.19,.19-.19s.19,.08,.19,.19-.09,.19-.19,.19-.19-.09-.19-.19h0Z"/><path class="cls-3" d="M12.59,12.94c0-.16,.13-.29,.28-.29s.28,.13,.28,.29-.13,.28-.28,.28-.28-.12-.28-.28h0Z"/><path class="cls-3" d="M14.24,12.94c0-.25,.2-.44,.44-.44s.44,.2,.44,.44-.2,.44-.44,.44-.44-.2-.44-.44h0Z"/><path class="cls-3" d="M15.99,12.94c0-.28,.23-.51,.51-.51s.51,.23,.51,.51-.23,.5-.51,.5-.51-.23-.51-.5h0Z"/><path class="cls-3" d="M39.56,11.11c0-.24,.2-.44,.44-.44s.44,.2,.44,.44-.2,.44-.44,.44-.44-.2-.44-.44h0Z"/><path class="cls-3" d="M41.65,11.11c0-.09,.07-.16,.16-.16s.16,.07,.16,.16-.07,.16-.16,.16-.16-.07-.16-.16h0Z"/><path class="cls-3" d="M12.75,11.11c0-.07,.06-.13,.13-.13s.13,.06,.13,.13-.06,.13-.13,.13-.13-.06-.13-.13h0Z"/><path class="cls-3" d="M14.5,11.11c0-.1,.08-.19,.19-.19s.19,.08,.19,.19-.08,.19-.19,.19-.19-.08-.19-.19h0Z"/><path class="cls-3" d="M16.27,11.11c0-.12,.1-.22,.22-.22s.22,.1,.22,.22-.1,.22-.22,.22-.22-.1-.22-.22h0Z"/><path class="cls-3" d="M18.02,11.11c0-.16,.13-.29,.28-.29s.29,.13,.29,.29-.13,.28-.29,.28-.28-.13-.28-.28h0Z"/><path class="cls-3" d="M19.79,11.11c0-.17,.14-.32,.31-.32s.32,.14,.32,.32-.14,.32-.32,.32-.31-.14-.31-.32h0Z"/><path class="cls-3" d="M21.48,11.11c0-.24,.2-.44,.44-.44s.44,.2,.44,.44-.2,.44-.44,.44-.44-.2-.44-.44h0Z"/><path class="cls-3" d="M23.22,11.11c0-.28,.23-.5,.51-.5s.51,.22,.51,.5-.23,.51-.51,.51-.51-.23-.51-.51h0Z"/><path class="cls-3" d="M25.16,9.28c0-.21,.17-.38,.38-.38s.38,.17,.38,.38-.17,.38-.38,.38-.38-.17-.38-.38h0Z"/><path class="cls-3" d="M39.49,9.28c0-.28,.23-.51,.51-.51s.51,.23,.51,.51-.23,.51-.51,.51-.51-.23-.51-.51h0Z"/><path class="cls-3" d="M41.59,9.28c0-.12,.1-.22,.22-.22s.22,.1,.22,.22-.1,.22-.22,.22-.22-.1-.22-.22h0Z"/><path class="cls-3" d="M43.49,9.28c0-.07,.06-.12,.12-.12s.13,.06,.13,.12-.06,.13-.13,.13-.12-.05-.12-.13h0Z"/><path class="cls-3" d="M16.37,9.28c0-.07,.06-.12,.13-.12s.13,.06,.13,.12-.06,.13-.13,.13-.13-.05-.13-.13h0Z"/><path class="cls-3" d="M18.14,9.28c0-.09,.07-.16,.16-.16s.16,.07,.16,.16-.07,.16-.16,.16-.16-.07-.16-.16h0Z"/><path class="cls-3" d="M19.95,9.28c0-.09,.07-.16,.16-.16s.16,.07,.16,.16-.07,.16-.16,.16-.16-.07-.16-.16h0Z"/><path class="cls-3" d="M21.73,9.28c0-.1,.09-.19,.19-.19s.19,.09,.19,.19-.09,.19-.19,.19-.19-.08-.19-.19h0Z"/><path class="cls-3" d="M23.51,9.28c0-.12,.1-.22,.22-.22s.22,.1,.22,.22-.1,.22-.22,.22-.22-.1-.22-.22h0Z"/><path class="cls-3" d="M25.31,7.45c0-.12,.1-.22,.22-.22s.22,.1,.22,.22-.1,.22-.22,.22-.22-.1-.22-.22h0Z"/><path class="cls-3" d="M26.87,7.45c0-.26,.21-.47,.47-.47s.47,.21,.47,.47-.21,.47-.47,.47-.47-.21-.47-.47h0Z"/><path class="cls-3" d="M41.52,7.45c0-.16,.13-.29,.28-.29s.28,.13,.28,.29-.13,.29-.28,.29-.28-.13-.28-.29h0Z"/><path class="cls-3" d="M43.49,7.45c0-.07,.06-.13,.12-.13s.13,.06,.13,.13-.06,.13-.13,.13-.12-.06-.12-.13h0Z"/><path class="cls-3" d="M23.6,7.45c0-.07,.06-.13,.13-.13s.13,.06,.13,.13-.06,.13-.13,.13-.13-.06-.13-.13h0Z"/><path class="cls-3" d="M25.41,5.62c0-.07,.06-.13,.13-.13s.13,.06,.13,.13-.06,.13-.13,.13-.13-.06-.13-.13h0Z"/><path class="cls-3" d="M27.03,5.62c0-.18,.14-.31,.31-.31s.32,.14,.32,.31-.14,.32-.32,.32-.31-.14-.31-.32h0Z"/><path class="cls-3" d="M39.37,5.62c0-.35,.28-.63,.63-.63s.63,.28,.63,.63-.28,.63-.63,.63-.63-.28-.63-.63h0Z"/><path class="cls-3" d="M41.52,5.62c0-.16,.13-.28,.28-.28s.28,.13,.28,.28-.13,.28-.28,.28-.28-.13-.28-.28h0Z"/><path class="cls-3" d="M43.49,5.62c0-.07,.06-.13,.12-.13s.13,.06,.13,.13-.06,.13-.13,.13-.12-.06-.12-.13h0Z"/><path class="cls-3" d="M25.41,3.79c0-.07,.06-.13,.13-.13s.13,.05,.13,.13c0,.07-.06,.12-.13,.12s-.13-.06-.13-.12h0Z"/><path class="cls-3" d="M27.09,3.79c0-.14,.11-.25,.25-.25s.25,.11,.25,.25-.11,.25-.25,.25-.25-.11-.25-.25h0Z"/><path class="cls-3" d="M28.71,3.79c0-.24,.2-.44,.44-.44s.44,.2,.44,.44-.2,.44-.44,.44-.44-.2-.44-.44h0Z"/><path class="cls-3" d="M39.53,3.79c0-.26,.21-.48,.47-.48s.47,.21,.47,.48-.21,.47-.47,.47-.47-.21-.47-.47h0Z"/><path class="cls-3" d="M41.59,3.79c0-.12,.1-.22,.22-.22s.22,.1,.22,.22-.1,.22-.22,.22-.22-.1-.22-.22h0Z"/><path class="cls-3" d="M43.49,3.79c0-.07,.06-.13,.12-.13s.13,.05,.13,.13c0,.07-.06,.12-.13,.12s-.12-.06-.12-.12h0Z"/><path class="cls-3" d="M27.18,1.96c0-.09,.07-.16,.16-.16s.16,.07,.16,.16-.07,.16-.16,.16-.16-.07-.16-.16h0Z"/><path class="cls-3" d="M28.9,1.96c0-.14,.11-.25,.25-.25s.25,.11,.25,.25-.11,.25-.25,.25-.25-.11-.25-.25h0Z"/><path class="cls-3" d="M30.64,1.96c0-.17,.14-.32,.32-.32s.31,.14,.31,.32-.14,.31-.31,.31-.32-.14-.32-.31h0Z"/><path class="cls-3" d="M32.39,1.96c0-.21,.17-.38,.38-.38s.38,.17,.38,.38-.17,.38-.38,.38-.38-.17-.38-.38h0Z"/><path class="cls-3" d="M34.13,1.96c0-.24,.2-.44,.44-.44s.44,.2,.44,.44-.2,.44-.44,.44-.44-.2-.44-.44h0Z"/><path class="cls-3" d="M36,1.96c0-.21,.17-.38,.38-.38s.38,.17,.38,.38-.17,.38-.38,.38-.38-.17-.38-.38h0Z"/><path class="cls-3" d="M37.87,1.96c0-.17,.14-.32,.32-.32s.32,.14,.32,.32-.14,.31-.32,.31-.32-.14-.32-.31h0Z"/><path class="cls-3" d="M39.75,1.96c0-.14,.11-.25,.25-.25s.25,.11,.25,.25-.11,.25-.25,.25-.25-.11-.25-.25h0Z"/><path class="cls-3" d="M41.65,1.96c0-.09,.07-.16,.16-.16s.16,.07,.16,.16-.07,.16-.16,.16-.16-.07-.16-.16h0Z"/><path class="cls-3" d="M29.07,.13s.03-.08,.08-.08,.07,.03,.07,.08c0,.04-.03,.07-.07,.07s-.08-.03-.08-.07h0Z"/><path class="cls-3" d="M30.83,.13c0-.07,.06-.13,.13-.13s.13,.06,.13,.13-.06,.12-.13,.12-.13-.05-.13-.12h0Z"/><path class="cls-3" d="M32.64,.13c0-.07,.06-.13,.13-.13s.13,.06,.13,.13-.06,.12-.13,.12-.13-.05-.13-.12h0Z"/><path class="cls-3" d="M34.45,.13c0-.07,.06-.13,.13-.13s.13,.06,.13,.13-.06,.12-.13,.12-.13-.05-.13-.12h0Z"/><path class="cls-3" d="M36.26,.13c0-.07,.06-.13,.13-.13s.13,.06,.13,.13-.06,.12-.13,.12-.13-.05-.13-.12h0Z"/><path class="cls-3" d="M38.06,.13c0-.07,.06-.13,.13-.13s.13,.06,.13,.13-.06,.12-.13,.12-.13-.05-.13-.12h0Z"/><path class="cls-3" d="M39.92,.13s.03-.08,.08-.08,.08,.03,.08,.08c0,.04-.03,.07-.08,.07s-.08-.03-.08-.07h0Z"/><path class="cls-3" d="M5.53,36.48s.03-.06,.06-.06,.06,.03,.06,.06-.03,.06-.06,.06-.06-.03-.06-.06h0Z"/><path class="cls-3" d="M7.27,36.48c0-.05,.04-.1,.1-.1s.1,.05,.1,.1c0,.06-.05,.1-.1,.1s-.1-.04-.1-.1h0Z"/><path class="cls-3" d="M9.04,36.48c0-.05,.04-.1,.1-.1s.1,.05,.1,.1c0,.06-.04,.1-.1,.1s-.1-.04-.1-.1h0Z"/><path class="cls-3" d="M10.85,36.48s.03-.06,.06-.06,.06,.03,.06,.06-.03,.06-.06,.06-.06-.03-.06-.06h0Z"/><path class="cls-3" d="M.05,34.71s.03-.06,.06-.06c.03,0,.06,.03,.06,.06s-.03,.06-.06,.06c-.03,0-.06-.03-.06-.06H.05Z"/></g><path class="cls-1" d="M57.78,17.71V8.86c0-1.62-.55-3.25-3.32-3.25-1.56,0-2.63,.55-3.41,1.12-.02-.37-.14-.82-.23-1.1l-3.66,.62c.3,1.26,.37,2.54,.37,3.96v7.5h3.98V9.57c.55-.48,1.01-.69,1.3-.69,.57,0,.98,0,.98,1.28v7.54h3.98Z"/><path class="cls-2" d="M68.33,18.19l2.29-2.22c-.82-.53-.91-1.33-.91-2.31l.05-4.07c0-.87-.02-1.3-.18-1.83-.43-1.4-2.01-2.15-4.25-2.15-1.94,0-3.84,.78-5.3,1.67l1.44,2.47c1.01-.75,2.04-1.23,3.36-1.23,.87,0,.96,.41,.96,1.1v.73c-.11-.02-.5-.02-.66-.02-3.29,0-5.24,1.6-5.24,3.85,0,2.1,1.12,3.84,4.05,3.84,1.39,0,2.38-.51,2.95-.99,.18,.37,.89,.99,1.46,1.17h0Zm-2.56-5.37v2.06c-.14,.18-.6,.39-.94,.39-.69,0-1.1-.46-1.1-1.14s.37-1.35,2.04-1.3h0Z"/><path class="cls-1" d="M76.83,2.39l-3.96,.59c-.11,.78-.14,1.76-.14,2.93h-.96v2.61h.96v6.65c0,2.29,1.48,2.86,3.7,2.86,.98,0,1.99-.21,3-.69l-.48-2.29c-.25,.14-.64,.23-1.01,.23-1.01,0-1.24-.37-1.24-2.01v-4.76h1.65l.53-2.61h-2.17c0-1.1-.02-2.26,.11-3.52h0Z"/><path class="cls-1" d="M91.46,5.59l-3.98,.64V14.44c-.34,.37-.85,.59-1.24,.59-.68,0-1.05-.16-1.05-.89V5.59l-3.98,.64v6.86c0,1.55,.05,2.26,.23,2.86,.41,1.35,1.53,2.06,3.7,2.06,1.26,0,2.27-.46,2.95-1.08,.09,.25,.23,.76,.5,1.08l3.45-1.24c-.34-.62-.59-1.46-.59-2.68V5.59h0Z"/><path class="cls-1" d="M101.73,5.91c-.55-.23-.91-.34-1.48-.34-1.26,0-1.95,.82-2.43,1.46,0-.48-.14-.98-.25-1.4l-3.66,.62c.32,1.28,.37,2.77,.37,4.28v7.18h3.98V9.64c.27-.48,.71-.85,1.39-.85,.46,0,.75,.09,1.17,.32l.91-3.2h0Z"/><path class="cls-1" d="M111.24,14.1c0-1.35-.62-2.63-2.95-3.23l-1.44-.37c-1.17-.3-1.55-.66-1.55-1.37,0-.89,.68-1.49,1.76-1.49,.91,0,1.76,.27,2.83,.85l.82-1.74c-.98-.53-2.24-1.01-3.82-1.01-2.56,0-4.3,1.51-4.3,3.68,0,1.62,1.03,2.82,2.77,3.18l1.39,.3c1.31,.27,1.88,.73,1.88,1.62,0,.96-.78,1.63-1.88,1.63-1.3,0-2.72-.62-3.75-1.21l-.89,1.81c1.49,.82,3.02,1.28,4.44,1.28,2.79,0,4.69-1.6,4.69-3.93h0Z"/><path class="cls-1" d="M116.59,2.66l-2.59,.62c-.12,.87-.12,1.87-.12,2.86h-1.28v1.74h1.28v7.16c0,1.65,.78,2.98,3.02,2.98,.78,0,1.51-.16,2.26-.51l-.32-1.51c-.44,.16-.73,.23-1.08,.23-1.1,0-1.42-.41-1.42-1.85V7.88h2.13l.66-1.74h-2.77c0-1.14,.09-2.54,.21-3.48h0Z"/><path class="cls-1" d="M127.65,6c-.3-.14-.53-.18-.89-.18-1.12,0-2.03,.59-2.95,1.85,0-.64-.16-1.31-.43-1.83l-2.31,.59c.25,.71,.41,1.65,.41,3.11v8.17h2.52v-7.82c.23-.94,1.12-1.72,2.17-1.72,.27,0,.46,.07,.71,.16l.78-2.33h0Z"/><path class="cls-2" d="M133.4,5.87c-3.06,0-5.05,2.38-5.05,6.08s1.97,6.06,5.1,6.06,5.12-2.31,5.12-6.04-1.87-6.11-5.17-6.11h0Zm.02,1.9c1.46,0,2.38,.98,2.38,4.25,0,2.9-.82,4.11-2.31,4.11s-2.35-.98-2.35-4.35c0-2.81,.68-4.02,2.29-4.02h0Z"/><path class="cls-1" d="M155.96,17.71V9.25c0-2.4-1.12-3.38-3.02-3.38-1.23,0-2.33,.55-3.45,1.69-.85-1.35-1.74-1.69-2.77-1.69s-2.15,.53-3.07,1.46c-.04-.64-.18-1.12-.41-1.49l-2.29,.64c.27,.62,.41,1.49,.41,2.93v8.3h2.45V9.14c.85-.78,1.67-1.14,2.38-1.14,.96,0,1.26,.43,1.26,1.78v7.94h2.4V9.3c.8-.75,1.6-1.33,2.45-1.33,.89,0,1.19,.39,1.19,1.74v8h2.47Z"/><g><path class="cls-1" d="M47.16,32.61v-7.98h4.43l-.17,1.08h-2.93v2.18h2.46v1.09h-2.43v2.49h3.2v1.13h-4.54Z"/><path class="cls-1" d="M56.93,32.61l-1.49-2.83c-.32-.6-.66-1.32-.75-1.57,.02,.38,.03,1.1,.05,1.72l.04,2.68h-1.23v-6.11h1.42l1.53,2.77c.32,.58,.54,1.11,.66,1.42-.02-.32-.09-.99-.09-1.59l-.02-2.6h1.2v6.11h-1.31Z"/><path class="cls-1" d="M60.57,32.61v-6.11h3.85l-.19,1h-2.4v1.41h2.01v1.02h-2v1.63h2.65v1.06h-3.93Z"/><path class="cls-1" d="M69.86,32.61l-.6-.98c-.61-1-.82-1.23-1.03-1.42-.1-.09-.28-.15-.44-.15v2.55h-1.26v-6.11h2.06c.81,0,1.37,.1,1.75,.43,.42,.35,.63,.82,.63,1.36,0,.94-.65,1.63-1.51,1.71,.08,.06,.18,.16,.28,.29,.2,.25,.52,.68,.8,1.1l.84,1.23h-1.53Zm-2.07-5.14v1.68h.55c.53,0,.84-.06,1.05-.22,.17-.14,.27-.35,.27-.63,0-.37-.17-.63-.52-.74-.2-.06-.43-.09-.74-.09h-.61Z"/><path class="cls-1" d="M75.6,32.68c-1.03,0-1.74-.31-2.29-.91-.52-.57-.76-1.26-.76-2.19,0-1.22,.41-2.05,1.22-2.64,.5-.36,1.1-.53,1.81-.53,.8,0,1.51,.23,2.12,.68l-.66,.77c-.45-.3-.87-.47-1.44-.47-.75,0-1.21,.28-1.43,.87-.14,.37-.21,.83-.21,1.41,0,.96,.22,1.53,.67,1.83,.28,.19,.63,.28,1.02,.28,.31,0,.58-.07,.81-.16v-1.4h-1.08l-.18-1h2.58v2.94c-.68,.36-1.38,.53-2.18,.53Z"/><path class="cls-1" d="M79.84,32.61v-6.11h1.31v6.11h-1.31Z"/><path class="cls-1" d="M83.49,32.61v-6.11h3.85l-.18,1h-2.4v1.41h2.01v1.02h-2v1.63h2.65v1.06h-3.93Z"/><path class="cls-1" d="M97.85,32.61l-.27-3.42c-.03-.42-.06-.95-.07-1.19-.04,.21-.2,.74-.32,1.15l-1.08,3.46h-1.1l-1.02-3.4c-.12-.38-.25-1-.31-1.28,0,.23-.03,.83-.07,1.28l-.25,3.4h-1.27l.65-6.11h1.65l.93,3.14c.13,.43,.24,.96,.29,1.19,.02-.22,.16-.8,.29-1.2l.94-3.13h1.66l.61,6.11h-1.26Z"/><path class="cls-1" d="M101.12,32.61v-6.11h1.31v6.11h-1.31Z"/><path class="cls-1" d="M108.77,27.52h-1.66v5.09h-1.28v-5.09h-1.68v-1.03h4.84l-.22,1.03Z"/><path class="cls-1" d="M117.59,32.61h-4.87v-.97l3.11-5.18c.24-.4,.53-.78,.53-.78,0,0-.39,.05-.86,.05h-2.63l.3-1.09h4.68v1l-3.11,5.24c-.17,.3-.46,.68-.46,.68,0,0,.34-.02,.8-.02h2.84l-.33,1.08Z"/><path class="cls-1" d="M123.82,32.13c-.37,.35-.96,.6-1.85,.6-1.12,0-1.82-.37-2.17-.9-.22-.33-.27-.66-.27-1.29v-4.04h1.29v3.84c0,.42,.02,.68,.1,.84,.16,.32,.53,.51,1.03,.51,.4,0,.73-.12,.89-.32,.16-.19,.23-.38,.23-.99v-3.88h1.29v3.99c0,.95-.14,1.27-.53,1.64Z"/><path class="cls-1" d="M130.06,32.61l-2.16-3.2v3.2h-1.3v-6.11h1.3v2.78l2.05-2.78h1.59l-2.27,2.83,2.47,3.29h-1.68Z"/><path class="cls-1" d="M137.47,32.13c-.37,.35-.97,.6-1.86,.6-1.12,0-1.82-.37-2.17-.9-.22-.33-.28-.66-.28-1.29v-4.04h1.29v3.84c0,.42,.02,.68,.1,.84,.16,.32,.53,.51,1.03,.51,.4,0,.73-.12,.89-.32,.16-.19,.23-.38,.23-.99v-3.88h1.29v3.99c0,.95-.14,1.27-.53,1.64Z"/><path class="cls-1" d="M143.66,32.61l-1.49-2.83c-.32-.6-.66-1.32-.75-1.57,.02,.38,.03,1.1,.05,1.72l.05,2.68h-1.24v-6.11h1.42l1.54,2.77c.32,.58,.54,1.11,.66,1.42-.02-.32-.09-.99-.09-1.59l-.02-2.6h1.2v6.11h-1.31Z"/><path class="cls-1" d="M150.8,27.49h-2.24v1.43h1.81v1.02h-1.81v2.68h-1.27v-6.11h3.67l-.16,.99Z"/><path class="cls-1" d="M156.62,27.52h-1.66v5.09h-1.28v-5.09h-1.68v-1.03h4.84l-.22,1.03Z"/></g></g></g></svg>