<svg xmlns="http://www.w3.org/2000/svg" xmlns:xlink="http://www.w3.org/1999/xlink"  fill="#0c243b" version="1.1" x="0px" y="0px" viewBox="13 13 77 77" style="enable-background:new 0 0 100 100;" xml:space="preserve"><path d="M51,13.6c-20.7,0-37.5,16.8-37.5,37.5c0,20.7,16.8,37.5,37.5,37.5c20.7,0,37.5-16.8,37.5-37.5C88.5,30.4,71.7,13.6,51,13.6z   M68.1,63.4c1.6,1.6,1.6,4.2,0,5.9c-0.8,0.8-1.9,1.2-2.9,1.2s-2.1-0.4-2.9-1.2L50.7,57.7L39.1,69.3c-0.8,0.8-1.9,1.2-2.9,1.2  s-2.1-0.4-2.9-1.2c-1.6-1.6-1.6-4.2,0-5.9l11.6-11.6L33.3,40.2c-1.6-1.6-1.6-4.2,0-5.9c1.6-1.6,4.2-1.6,5.9,0L50.7,46l11.6-11.6  c1.6-1.6,4.2-1.6,5.9,0c1.6,1.6,1.6,4.2,0,5.9L56.6,51.8L68.1,63.4z"/></svg>