<svg width="226" height="53" viewBox="0 0 226 53" fill="none" xmlns="http://www.w3.org/2000/svg">
<path fill-rule="evenodd" clip-rule="evenodd" d="M21.8631 0L18.6377 16.1096L18.5753 16.698C18.5426 19.4157 22.0675 21.6995 26.5363 21.6995L49.6828 21.6985C52.2954 21.6984 54.6417 23.6332 54.6417 26.2458C54.6417 39.6654 44.5719 50.7797 31.4349 52.7245L34.4348 37.2353L34.4973 36.647C34.529 34.0116 31.2191 32.4585 26.9438 32.3668L6.45343 32.0988C3.08568 32.0547 0 29.6139 0 26.2458C0 13.2875 9.38936 2.47886 21.8631 0Z" fill="#21C0B0"/>
<path fill-rule="evenodd" clip-rule="evenodd" d="M144.198 41.5584C143.607 41.778 142.525 42.0822 140.92 42.0991C136.932 42.1836 133.332 39.9023 133.349 35.1876V19.8607H129.547V15.8051H133.349V9.58643H138.402V15.8051H143.725V19.8607H138.402V34.1399C138.402 37.0634 139.872 37.6041 141.511 37.6041C142.229 37.6041 142.802 37.4848 143.158 37.4106L143.159 37.4105L143.237 37.3943L143.285 37.3844L144.198 41.5584ZM103.84 28.9014C103.84 36.9281 99.058 42.285 91.7409 42.285C84.4239 42.285 79.6416 36.9281 79.6416 28.9014C79.6416 20.8239 84.4239 15.467 91.7409 15.467C99.058 15.467 103.84 20.8239 103.84 28.9014ZM84.7451 28.8845C84.7451 33.8696 86.9757 38.0435 91.758 38.0435C96.5065 38.0435 98.7371 33.8696 98.7371 28.8845C98.7371 23.9164 96.5065 19.6917 91.758 19.6917C86.9757 19.6917 84.7451 23.9164 84.7451 28.8845ZM117.133 42.285C123.402 42.285 127.745 38.956 127.745 34.2582C127.745 30.5912 125.413 28.3268 120.648 27.2284L116.525 26.2821C113.669 25.6061 112.435 24.6429 112.452 22.8855C112.435 20.8915 114.598 19.472 117.471 19.472C120.614 19.472 122.067 21.2125 122.659 22.9531L127.238 22.142C126.191 18.1032 123.031 15.467 117.42 15.467C111.557 15.467 107.4 18.5595 107.4 23.1559C107.4 26.8397 109.63 29.29 114.497 30.3715L118.891 31.3347C121.392 31.8924 122.557 33.0077 122.557 34.6299C122.557 36.6409 120.411 38.2124 117.099 38.2124C114.074 38.2124 112.131 36.9112 111.523 34.3596L106.639 35.1031C107.484 39.6995 111.303 42.285 117.133 42.285ZM152.674 41.7611V25.9103C152.674 22.5137 155.294 20.0634 158.876 20.0634C159.924 20.0634 161.107 20.2493 161.512 20.3676V15.5347C161.005 15.4671 160.008 15.4164 159.366 15.4164C156.325 15.4164 153.722 17.14 152.776 19.9283H152.505V15.805H147.622V41.7611H152.674ZM186.313 28.9014C186.313 36.9281 181.53 42.285 174.213 42.285C166.896 42.285 162.114 36.9281 162.114 28.9014C162.114 20.8239 166.896 15.467 174.213 15.467C181.53 15.467 186.313 20.8239 186.313 28.9014ZM174.23 38.0435C169.448 38.0435 167.217 33.8696 167.217 28.8845C167.217 23.9164 169.448 19.6917 174.23 19.6917C178.979 19.6917 181.209 23.9164 181.209 28.8845C181.209 33.8696 178.979 38.0435 174.23 38.0435ZM195.313 25.7582V41.7611H190.261V15.805H195.11V20.0296H195.431C196.513 17.1738 199.065 15.467 202.495 15.467C205.959 15.467 208.342 17.1907 209.474 20.0296H209.745C210.995 17.2583 213.8 15.467 217.535 15.467C222.233 15.467 225.545 18.4243 225.545 24.3557V41.7611H220.492V24.8288C220.492 21.3139 218.295 19.8269 215.625 19.8269C212.33 19.8269 210.42 22.0913 210.42 25.2175V41.7611H205.385V24.5077C205.385 21.6857 203.441 19.8269 200.636 19.8269C197.763 19.8269 195.313 22.2602 195.313 25.7582Z" fill="#1B232C"/>
</svg>
